<svg xmlns="http://www.w3.org/2000/svg" xmlns:xlink="http://www.w3.org/1999/xlink" width="500" zoomAndPan="magnify" viewBox="0 0 375 374.999991" height="500" preserveAspectRatio="xMidYMid meet" version="1.0"><defs><g/><clipPath id="00d5beda10"><path d="M 6.960938 6.960938 L 368.039062 6.960938 L 368.039062 368.039062 L 6.960938 368.039062 Z M 6.960938 6.960938 " clip-rule="nonzero"/></clipPath><clipPath id="bfc11f8bfa"><path d="M 187.5 6.960938 C 87.789062 6.960938 6.960938 87.789062 6.960938 187.5 C 6.960938 287.210938 87.789062 368.039062 187.5 368.039062 C 287.210938 368.039062 368.039062 287.210938 368.039062 187.5 C 368.039062 87.789062 287.210938 6.960938 187.5 6.960938 " clip-rule="nonzero"/></clipPath><clipPath id="a006cd693b"><path d="M 18.316406 18.316406 L 356.683594 18.316406 L 356.683594 356.683594 L 18.316406 356.683594 Z M 18.316406 18.316406 " clip-rule="nonzero"/></clipPath><clipPath id="aa42e16da5"><path d="M 187.5 18.316406 C 94.0625 18.316406 18.316406 94.0625 18.316406 187.5 C 18.316406 280.9375 94.0625 356.683594 187.5 356.683594 C 280.9375 356.683594 356.683594 280.9375 356.683594 187.5 C 356.683594 94.0625 280.9375 18.316406 187.5 18.316406 " clip-rule="nonzero"/></clipPath><clipPath id="757304e751"><path d="M 33.597656 33.597656 L 341.402344 33.597656 L 341.402344 341.402344 L 33.597656 341.402344 Z M 33.597656 33.597656 " clip-rule="nonzero"/></clipPath><clipPath id="e24dd378d3"><path d="M 187.5 33.597656 C 102.503906 33.597656 33.597656 102.503906 33.597656 187.5 C 33.597656 272.496094 102.503906 341.402344 187.5 341.402344 C 272.496094 341.402344 341.402344 272.496094 341.402344 187.5 C 341.402344 102.503906 272.496094 33.597656 187.5 33.597656 " clip-rule="nonzero"/></clipPath><clipPath id="a40044bfbc"><path d="M 101.289062 63.917969 L 252.777344 63.917969 L 252.777344 215.40625 L 101.289062 215.40625 Z M 101.289062 63.917969 " clip-rule="nonzero"/></clipPath><clipPath id="a6dfc3efdb"><path d="M 177.035156 63.917969 C 135.203125 63.917969 101.289062 97.832031 101.289062 139.664062 C 101.289062 181.496094 135.203125 215.40625 177.035156 215.40625 C 218.867188 215.40625 252.777344 181.496094 252.777344 139.664062 C 252.777344 97.832031 218.867188 63.917969 177.035156 63.917969 " clip-rule="nonzero"/></clipPath></defs><g clip-path="url(#00d5beda10)"><g clip-path="url(#bfc11f8bfa)"><path fill="#e3dddc" d="M 6.960938 6.960938 L 368.039062 6.960938 L 368.039062 368.039062 L 6.960938 368.039062 Z M 6.960938 6.960938 " fill-opacity="1" fill-rule="nonzero"/></g></g><g clip-path="url(#a006cd693b)"><g clip-path="url(#aa42e16da5)"><path fill="#fafaff" d="M 18.316406 18.316406 L 356.683594 18.316406 L 356.683594 356.683594 L 18.316406 356.683594 Z M 18.316406 18.316406 " fill-opacity="1" fill-rule="nonzero"/></g></g><g clip-path="url(#757304e751)"><g clip-path="url(#e24dd378d3)"><path fill="#3e829a" d="M 33.597656 33.597656 L 341.402344 33.597656 L 341.402344 341.402344 L 33.597656 341.402344 Z M 33.597656 33.597656 " fill-opacity="1" fill-rule="nonzero"/></g></g><g clip-path="url(#a40044bfbc)"><g clip-path="url(#a6dfc3efdb)"><path fill="#2f3b69" d="M 101.289062 63.917969 L 252.777344 63.917969 L 252.777344 215.40625 L 101.289062 215.40625 Z M 101.289062 63.917969 " fill-opacity="1" fill-rule="nonzero"/></g></g><g fill="#fafaff" fill-opacity="1"><g transform="translate(139.320963, 210.045692)"><g><path d="M 71.640625 -84.65625 L 48.6875 -72.625 L 71.640625 -60.515625 L 66.359375 -50.703125 L 43.1875 -63.5 L 43.1875 -39.578125 L 31.375 -39.578125 L 31.375 -63.5 L 8.140625 -50.703125 L 2.859375 -60.515625 L 26.078125 -72.625 L 2.859375 -84.65625 L 8.140625 -94.453125 L 31.375 -81.796875 L 31.375 -105.734375 L 43.1875 -105.734375 L 43.1875 -81.796875 L 66.359375 -94.453125 Z M 71.640625 -84.65625 "/></g></g></g><g fill="#fafaff" fill-opacity="1"><g transform="translate(213.812827, 210.045692)"><g><path d="M 46.875 -35.0625 C 41.6875 -35.0625 37.78125 -34.175781 35.15625 -32.40625 C 32.539062 -30.644531 31.234375 -28.050781 31.234375 -24.625 C 31.234375 -21.46875 32.285156 -18.992188 34.390625 -17.203125 C 36.503906 -15.421875 39.4375 -14.53125 43.1875 -14.53125 C 47.875 -14.53125 51.816406 -16.210938 55.015625 -19.578125 C 58.210938 -22.941406 59.8125 -27.148438 59.8125 -32.203125 L 59.8125 -35.0625 Z M 84.921875 -44.453125 L 84.921875 0 L 59.8125 0 L 59.8125 -11.546875 C 56.476562 -6.816406 52.722656 -3.375 48.546875 -1.21875 C 44.378906 0.9375 39.300781 2.015625 33.3125 2.015625 C 25.25 2.015625 18.703125 -0.335938 13.671875 -5.046875 C 8.640625 -9.753906 6.125 -15.863281 6.125 -23.375 C 6.125 -32.507812 9.265625 -39.207031 15.546875 -43.46875 C 21.828125 -47.738281 31.691406 -49.875 45.140625 -49.875 L 59.8125 -49.875 L 59.8125 -51.8125 C 59.8125 -55.757812 58.257812 -58.648438 55.15625 -60.484375 C 52.050781 -62.316406 47.207031 -63.234375 40.625 -63.234375 C 35.289062 -63.234375 30.328125 -62.695312 25.734375 -61.625 C 21.140625 -60.5625 16.875 -58.960938 12.9375 -56.828125 L 12.9375 -75.8125 C 18.269531 -77.113281 23.625 -78.097656 29 -78.765625 C 34.382812 -79.441406 39.765625 -79.78125 45.140625 -79.78125 C 59.191406 -79.78125 69.332031 -77.007812 75.5625 -71.46875 C 81.800781 -65.925781 84.921875 -56.921875 84.921875 -44.453125 Z M 84.921875 -44.453125 "/></g></g></g><g fill="#fafaff" fill-opacity="1"><g transform="translate(59.654194, 262.179042)"><g><path d="M 1.171875 -28.6875 L 8.265625 -28.6875 L 13.21875 -7.84375 L 18.140625 -28.6875 L 25.265625 -28.6875 L 30.1875 -7.84375 L 35.140625 -28.6875 L 42.171875 -28.6875 L 35.40625 0 L 26.875 0 L 21.671875 -21.796875 L 16.515625 0 L 7.984375 0 Z M 1.171875 -28.6875 "/></g></g></g><g fill="#fafaff" fill-opacity="1"><g transform="translate(106.08529, 262.179042)"><g><path d="M 3.609375 -28.6875 L 11 -28.6875 L 11 0 L 3.609375 0 Z M 3.609375 -28.6875 "/></g></g></g><g fill="#fafaff" fill-opacity="1"><g transform="translate(123.755081, 262.179042)"><g><path d="M 3.609375 -28.6875 L 11 -28.6875 L 11 -5.59375 L 24 -5.59375 L 24 0 L 3.609375 0 Z M 3.609375 -28.6875 "/></g></g></g><g fill="#fafaff" fill-opacity="1"><g transform="translate(151.857329, 262.179042)"><g><path d="M 3.609375 -28.6875 L 11 -28.6875 L 11 -5.59375 L 24 -5.59375 L 24 0 L 3.609375 0 Z M 3.609375 -28.6875 "/></g></g></g><g fill="#fafaff" fill-opacity="1"><g transform="translate(179.959577, 262.179042)"><g><path d="M 23.578125 -27.78125 L 23.578125 -21.703125 C 21.992188 -22.410156 20.453125 -22.941406 18.953125 -23.296875 C 17.460938 -23.660156 16.050781 -23.84375 14.71875 -23.84375 C 12.945312 -23.84375 11.640625 -23.597656 10.796875 -23.109375 C 9.953125 -22.617188 9.53125 -21.863281 9.53125 -20.84375 C 9.53125 -20.070312 9.8125 -19.472656 10.375 -19.046875 C 10.945312 -18.617188 11.984375 -18.25 13.484375 -17.9375 L 16.640625 -17.3125 C 19.828125 -16.664062 22.09375 -15.6875 23.4375 -14.375 C 24.78125 -13.070312 25.453125 -11.21875 25.453125 -8.8125 C 25.453125 -5.65625 24.515625 -3.300781 22.640625 -1.75 C 20.765625 -0.207031 17.898438 0.5625 14.046875 0.5625 C 12.222656 0.5625 10.394531 0.382812 8.5625 0.03125 C 6.738281 -0.3125 4.910156 -0.820312 3.078125 -1.5 L 3.078125 -7.734375 C 4.910156 -6.765625 6.679688 -6.03125 8.390625 -5.53125 C 10.097656 -5.039062 11.742188 -4.796875 13.328125 -4.796875 C 14.941406 -4.796875 16.175781 -5.066406 17.03125 -5.609375 C 17.894531 -6.148438 18.328125 -6.921875 18.328125 -7.921875 C 18.328125 -8.816406 18.035156 -9.503906 17.453125 -9.984375 C 16.867188 -10.472656 15.707031 -10.910156 13.96875 -11.296875 L 11.109375 -11.9375 C 8.234375 -12.550781 6.132812 -13.53125 4.8125 -14.875 C 3.488281 -16.21875 2.828125 -18.03125 2.828125 -20.3125 C 2.828125 -23.164062 3.75 -25.359375 5.59375 -26.890625 C 7.4375 -28.429688 10.085938 -29.203125 13.546875 -29.203125 C 15.117188 -29.203125 16.738281 -29.082031 18.40625 -28.84375 C 20.070312 -28.601562 21.796875 -28.25 23.578125 -27.78125 Z M 23.578125 -27.78125 "/></g></g></g><g fill="#fafaff" fill-opacity="1"><g transform="translate(211.327973, 262.179042)"><g><path d="M 3.609375 -28.6875 L 13.03125 -28.6875 L 19.5625 -13.328125 L 26.125 -28.6875 L 35.515625 -28.6875 L 35.515625 0 L 28.53125 0 L 28.53125 -20.984375 L 21.921875 -5.515625 L 17.234375 -5.515625 L 10.625 -20.984375 L 10.625 0 L 3.609375 0 Z M 3.609375 -28.6875 "/></g></g></g><g fill="#fafaff" fill-opacity="1"><g transform="translate(253.513078, 262.179042)"><g><path d="M 21.015625 -5.21875 L 9.453125 -5.21875 L 7.625 0 L 0.1875 0 L 10.8125 -28.6875 L 19.640625 -28.6875 L 30.25 0 L 22.828125 0 Z M 11.296875 -10.546875 L 19.15625 -10.546875 L 15.234375 -21.953125 Z M 11.296875 -10.546875 "/></g></g></g><g fill="#fafaff" fill-opacity="1"><g transform="translate(286.994862, 262.179042)"><g><path d="M 19.59375 -14.640625 L 29.546875 0 L 21.84375 0 L 15.140625 -9.796875 L 8.484375 0 L 0.75 0 L 10.703125 -14.640625 L 1.140625 -28.6875 L 8.859375 -28.6875 L 15.140625 -19.4375 L 21.40625 -28.6875 L 29.15625 -28.6875 Z M 19.59375 -14.640625 "/></g></g></g></svg>