<svg xmlns="http://www.w3.org/2000/svg" xmlns:xlink="http://www.w3.org/1999/xlink" width="500" zoomAndPan="magnify" viewBox="0 0 375 374.999991" height="500" preserveAspectRatio="xMidYMid meet" version="1.0"><defs><g/><clipPath id="6f5a149e8b"><path d="M 47.882812 47.882812 L 327.117188 47.882812 L 327.117188 327.117188 L 47.882812 327.117188 Z M 47.882812 47.882812 " clip-rule="nonzero"/></clipPath><clipPath id="1d2771c763"><path d="M 187.5 47.882812 C 110.390625 47.882812 47.882812 110.390625 47.882812 187.5 C 47.882812 264.609375 110.390625 327.117188 187.5 327.117188 C 264.609375 327.117188 327.117188 264.609375 327.117188 187.5 C 327.117188 110.390625 264.609375 47.882812 187.5 47.882812 " clip-rule="nonzero"/></clipPath><clipPath id="fe9e64d146"><path d="M 125.054688 62.609375 L 249.945312 62.609375 L 249.945312 187.5 L 125.054688 187.5 Z M 125.054688 62.609375 " clip-rule="nonzero"/></clipPath><clipPath id="a4030c2a32"><path d="M 187.5 62.609375 C 153.011719 62.609375 125.054688 90.566406 125.054688 125.054688 C 125.054688 159.542969 153.011719 187.5 187.5 187.5 C 221.988281 187.5 249.945312 159.542969 249.945312 125.054688 C 249.945312 90.566406 221.988281 62.609375 187.5 62.609375 " clip-rule="nonzero"/></clipPath></defs><g clip-path="url(#6f5a149e8b)"><g clip-path="url(#1d2771c763)"><path fill="#3e829a" d="M 47.882812 47.882812 L 327.117188 47.882812 L 327.117188 327.117188 L 47.882812 327.117188 Z M 47.882812 47.882812 " fill-opacity="1" fill-rule="nonzero"/></g></g><g clip-path="url(#fe9e64d146)"><g clip-path="url(#a4030c2a32)"><path fill="#2f3b69" d="M 125.054688 62.609375 L 249.945312 62.609375 L 249.945312 187.5 L 125.054688 187.5 Z M 125.054688 62.609375 " fill-opacity="1" fill-rule="nonzero"/></g></g><g fill="#fafaff" fill-opacity="1"><g transform="translate(153.668775, 153.646038)"><g><path d="M 42.5 -50.21875 L 28.875 -43.078125 L 42.5 -35.890625 L 39.359375 -30.078125 L 25.625 -37.671875 L 25.625 -23.484375 L 18.609375 -23.484375 L 18.609375 -37.671875 L 4.828125 -30.078125 L 1.6875 -35.890625 L 15.46875 -43.078125 L 1.6875 -50.21875 L 4.828125 -56.03125 L 18.609375 -48.515625 L 18.609375 -62.71875 L 25.625 -62.71875 L 25.625 -48.515625 L 39.359375 -56.03125 Z M 42.5 -50.21875 "/></g></g></g><g fill="#fafaff" fill-opacity="1"><g transform="translate(197.853897, 153.646038)"><g><path d="M 27.8125 -20.796875 C 24.726562 -20.796875 22.410156 -20.269531 20.859375 -19.21875 C 19.304688 -18.175781 18.53125 -16.640625 18.53125 -14.609375 C 18.53125 -12.734375 19.15625 -11.265625 20.40625 -10.203125 C 21.65625 -9.148438 23.394531 -8.625 25.625 -8.625 C 28.40625 -8.625 30.742188 -9.617188 32.640625 -11.609375 C 34.535156 -13.609375 35.484375 -16.109375 35.484375 -19.109375 L 35.484375 -20.796875 Z M 50.375 -26.359375 L 50.375 0 L 35.484375 0 L 35.484375 -6.84375 C 33.503906 -4.039062 31.273438 -2 28.796875 -0.71875 C 26.328125 0.5625 23.316406 1.203125 19.765625 1.203125 C 14.972656 1.203125 11.082031 -0.191406 8.09375 -2.984375 C 5.113281 -5.773438 3.625 -9.398438 3.625 -13.859375 C 3.625 -19.273438 5.488281 -23.25 9.21875 -25.78125 C 12.945312 -28.3125 18.800781 -29.578125 26.78125 -29.578125 L 35.484375 -29.578125 L 35.484375 -30.734375 C 35.484375 -33.078125 34.5625 -34.789062 32.71875 -35.875 C 30.875 -36.957031 28 -37.5 24.09375 -37.5 C 20.925781 -37.5 17.984375 -37.179688 15.265625 -36.546875 C 12.546875 -35.921875 10.015625 -34.972656 7.671875 -33.703125 L 7.671875 -44.96875 C 10.835938 -45.738281 14.015625 -46.320312 17.203125 -46.71875 C 20.390625 -47.125 23.582031 -47.328125 26.78125 -47.328125 C 35.113281 -47.328125 41.128906 -45.679688 44.828125 -42.390625 C 48.523438 -39.109375 50.375 -33.765625 50.375 -26.359375 Z M 50.375 -26.359375 "/></g></g></g><g fill="#fafaff" fill-opacity="1"><g transform="translate(58.655458, 223.806949)"><g><path d="M 1.171875 -28.6875 L 8.265625 -28.6875 L 13.21875 -7.84375 L 18.140625 -28.6875 L 25.265625 -28.6875 L 30.1875 -7.84375 L 35.140625 -28.6875 L 42.171875 -28.6875 L 35.40625 0 L 26.875 0 L 21.671875 -21.796875 L 16.515625 0 L 7.984375 0 Z M 1.171875 -28.6875 "/></g></g></g><g fill="#fafaff" fill-opacity="1"><g transform="translate(105.086554, 223.806949)"><g><path d="M 3.609375 -28.6875 L 11 -28.6875 L 11 0 L 3.609375 0 Z M 3.609375 -28.6875 "/></g></g></g><g fill="#fafaff" fill-opacity="1"><g transform="translate(122.756345, 223.806949)"><g><path d="M 3.609375 -28.6875 L 11 -28.6875 L 11 -5.59375 L 24 -5.59375 L 24 0 L 3.609375 0 Z M 3.609375 -28.6875 "/></g></g></g><g fill="#fafaff" fill-opacity="1"><g transform="translate(150.858593, 223.806949)"><g><path d="M 3.609375 -28.6875 L 11 -28.6875 L 11 -5.59375 L 24 -5.59375 L 24 0 L 3.609375 0 Z M 3.609375 -28.6875 "/></g></g></g><g fill="#fafaff" fill-opacity="1"><g transform="translate(178.960841, 223.806949)"><g><path d="M 23.578125 -27.78125 L 23.578125 -21.703125 C 21.992188 -22.410156 20.453125 -22.941406 18.953125 -23.296875 C 17.460938 -23.660156 16.050781 -23.84375 14.71875 -23.84375 C 12.945312 -23.84375 11.640625 -23.597656 10.796875 -23.109375 C 9.953125 -22.617188 9.53125 -21.863281 9.53125 -20.84375 C 9.53125 -20.070312 9.8125 -19.472656 10.375 -19.046875 C 10.945312 -18.617188 11.984375 -18.25 13.484375 -17.9375 L 16.640625 -17.3125 C 19.828125 -16.664062 22.09375 -15.6875 23.4375 -14.375 C 24.78125 -13.070312 25.453125 -11.21875 25.453125 -8.8125 C 25.453125 -5.65625 24.515625 -3.300781 22.640625 -1.75 C 20.765625 -0.207031 17.898438 0.5625 14.046875 0.5625 C 12.222656 0.5625 10.394531 0.382812 8.5625 0.03125 C 6.738281 -0.3125 4.910156 -0.820312 3.078125 -1.5 L 3.078125 -7.734375 C 4.910156 -6.765625 6.679688 -6.03125 8.390625 -5.53125 C 10.097656 -5.039062 11.742188 -4.796875 13.328125 -4.796875 C 14.941406 -4.796875 16.175781 -5.066406 17.03125 -5.609375 C 17.894531 -6.148438 18.328125 -6.921875 18.328125 -7.921875 C 18.328125 -8.816406 18.035156 -9.503906 17.453125 -9.984375 C 16.867188 -10.472656 15.707031 -10.910156 13.96875 -11.296875 L 11.109375 -11.9375 C 8.234375 -12.550781 6.132812 -13.53125 4.8125 -14.875 C 3.488281 -16.21875 2.828125 -18.03125 2.828125 -20.3125 C 2.828125 -23.164062 3.75 -25.359375 5.59375 -26.890625 C 7.4375 -28.429688 10.085938 -29.203125 13.546875 -29.203125 C 15.117188 -29.203125 16.738281 -29.082031 18.40625 -28.84375 C 20.070312 -28.601562 21.796875 -28.25 23.578125 -27.78125 Z M 23.578125 -27.78125 "/></g></g></g><g fill="#fafaff" fill-opacity="1"><g transform="translate(210.329237, 223.806949)"><g><path d="M 3.609375 -28.6875 L 13.03125 -28.6875 L 19.5625 -13.328125 L 26.125 -28.6875 L 35.515625 -28.6875 L 35.515625 0 L 28.53125 0 L 28.53125 -20.984375 L 21.921875 -5.515625 L 17.234375 -5.515625 L 10.625 -20.984375 L 10.625 0 L 3.609375 0 Z M 3.609375 -28.6875 "/></g></g></g><g fill="#fafaff" fill-opacity="1"><g transform="translate(252.514342, 223.806949)"><g><path d="M 21.015625 -5.21875 L 9.453125 -5.21875 L 7.625 0 L 0.1875 0 L 10.8125 -28.6875 L 19.640625 -28.6875 L 30.25 0 L 22.828125 0 Z M 11.296875 -10.546875 L 19.15625 -10.546875 L 15.234375 -21.953125 Z M 11.296875 -10.546875 "/></g></g></g><g fill="#fafaff" fill-opacity="1"><g transform="translate(285.996126, 223.806949)"><g><path d="M 19.59375 -14.640625 L 29.546875 0 L 21.84375 0 L 15.140625 -9.796875 L 8.484375 0 L 0.75 0 L 10.703125 -14.640625 L 1.140625 -28.6875 L 8.859375 -28.6875 L 15.140625 -19.4375 L 21.40625 -28.6875 L 29.15625 -28.6875 Z M 19.59375 -14.640625 "/></g></g></g></svg>